# xmcd CD database file
#
# Track frame offsets:
#	187
#	27480
#	60067
#	84425
#	105212
#	125067
#	149120
#	170500
#	195012
#	228215
#
# Disc length: 3365 seconds
#
# Revision: 0
# Processed by: cddbd v1.5PL3 Copyright (c) Steve Scherf et al.
# Submitted via: CDex 1.51
#
DISCID=760d230a
DTITLE=Miles Davis - DAY OF JAZZ (II)
DYEAR=1900
DGENRE=Jazz
TTITLE0=My Funny Valentine
TTITLE1=Four
TTITLE2=It Never Entered My Mind
TTITLE3=In Your Own Sweet Way
TTITLE4=When I Fall In Love
TTITLE5=There is no greater love
TTITLE6=Solar
TTITLE7=It's only a paper moon
TTITLE8=A night in TUNISIA
TTITLE9=Round about midnight
EXTD=
EXTT0=
EXTT1=
EXTT2=
EXTT3=
EXTT4=
EXTT5=
EXTT6=
EXTT7=
EXTT8=
EXTT9=
PLAYORDER=
